<?xml version="1.0" standalone="no"?>
<!DOCTYPE svg PUBLIC "-//W3C//DTD SVG 20010904//EN"
 "http://www.w3.org/TR/2001/REC-SVG-20010904/DTD/svg10.dtd">
<svg version="1.0" xmlns="http://www.w3.org/2000/svg"
 width="269.000000pt" height="269.000000pt" viewBox="0 0 269.000000 269.000000"
 preserveAspectRatio="xMidYMid meet">
<metadata>
Created by potrace 1.11, written by Peter Selinger 2001-2013
</metadata>
<g transform="translate(0.000000,269.000000) scale(0.100000,-0.100000)"
fill="#000000" stroke="none">
<path d="M1092 2679 c10 -7 9 -12 -6 -26 -12 -10 -15 -11 -9 -3 10 13 6 16
-27 16 -22 1 -37 -3 -34 -7 2 -4 14 -6 26 -4 11 3 18 1 14 -2 -11 -12 -40 -12
-53 -1 -9 7 -13 7 -13 -2 0 -10 -3 -10 -14 -1 -11 9 -19 9 -35 -1 -12 -7 -21
-16 -21 -20 0 -5 -5 -8 -11 -8 -5 0 -7 6 -4 13 4 6 1 5 -7 -4 -7 -9 -21 -15
-31 -13 -9 1 -15 -2 -12 -6 3 -5 1 -11 -4 -14 -5 -4 -12 -2 -16 4 -4 6 -10 8
-14 5 -5 -2 -17 2 -27 11 -18 14 -17 14 6 4 24 -11 24 -10 6 4 -11 9 -24 16
-29 16 -4 0 -5 5 -1 12 4 7 3 8 -5 4 -6 -4 -9 -11 -6 -16 3 -5 0 -12 -6 -16
-8 -4 -9 -3 -5 4 4 7 2 12 -4 12 -6 0 -9 3 -7 8 3 4 -6 7 -19 7 -22 0 -23 -1
-8 -12 14 -10 11 -12 -21 -8 -20 3 -41 7 -45 10 -5 3 -11 1 -15 -5 -4 -6 -11
-7 -17 -4 -6 4 -8 1 -6 -7 3 -8 11 -13 17 -11 7 1 9 -2 6 -8 -4 -6 -10 -9 -13
-6 -3 3 -11 1 -18 -5 -8 -7 -14 -7 -19 1 -5 8 -11 8 -21 -1 -9 -8 -11 -16 -5
-23 6 -8 6 -17 -1 -26 -8 -13 -9 -13 -5 1 3 9 0 16 -7 16 -7 0 -13 -11 -14
-24 -4 -55 -4 -54 -24 -36 -11 9 -18 11 -18 5 0 -7 4 -12 9 -12 5 0 12 -7 15
-16 3 -9 2 -12 -5 -8 -7 4 -9 -5 -6 -26 5 -26 3 -30 -11 -25 -13 5 -12 1 4
-16 10 -12 13 -19 7 -15 -7 4 -13 2 -13 -3 0 -6 5 -11 11 -11 5 0 7 -6 3 -12
-11 -18 -12 -48 -2 -48 4 0 8 -5 8 -11 0 -5 -5 -7 -12 -3 -7 4 -8 3 -4 -5 4
-6 11 -9 16 -6 13 8 18 -18 8 -37 -5 -11 -5 -18 1 -18 5 0 11 -7 15 -15 4 -12
2 -13 -12 -6 -16 8 -17 5 -14 -25 3 -20 -2 -41 -9 -51 -10 -12 -10 -15 -1 -9
7 4 12 1 12 -9 0 -9 -4 -13 -10 -10 -5 3 -10 1 -10 -4 0 -6 5 -11 11 -11 8 0
8 -4 -1 -15 -10 -11 -9 -18 4 -30 19 -20 21 -32 3 -17 -10 8 -13 6 -13 -9 0
-10 3 -19 6 -19 3 0 6 -9 6 -19 0 -16 -3 -18 -15 -8 -12 10 -13 9 -2 -11 7
-13 17 -20 24 -15 7 4 6 -1 -2 -11 -17 -21 -22 -56 -8 -56 5 0 3 -8 -4 -17
-10 -11 -10 -14 -1 -9 16 9 16 -6 0 -23 -11 -11 -10 -13 2 -9 10 4 15 -1 15
-17 0 -13 -3 -21 -6 -19 -4 2 -9 -3 -13 -11 -3 -8 0 -17 6 -21 7 -4 8 -3 4 4
-5 8 -1 10 9 5 12 -4 13 -8 5 -13 -8 -5 -9 -13 -4 -21 6 -11 5 -12 -7 -2 -11
9 -14 7 -14 -13 0 -13 3 -24 8 -24 4 0 7 5 7 12 0 6 3 8 7 5 3 -4 -2 -17 -13
-29 -10 -12 -13 -18 -6 -14 15 9 16 -10 1 -19 -6 -5 -4 -12 8 -21 17 -13 17
-14 0 -8 -13 5 -16 2 -10 -12 5 -13 3 -15 -8 -9 -12 7 -12 6 -1 -7 10 -12 9
-18 -3 -28 -8 -7 -12 -17 -8 -23 3 -6 1 -7 -6 -3 -9 6 -9 11 -1 21 8 9 8 15 0
20 -6 4 -10 3 -9 -2 1 -4 0 -10 -1 -13 -7 -19 -8 -46 0 -55 4 -6 1 -16 -8 -25
-14 -13 -15 -12 -9 3 3 9 3 18 -1 21 -13 8 -12 -37 1 -54 7 -9 4 -8 -10 3 -16
14 -23 15 -29 6 -4 -8 -3 -10 4 -5 17 10 15 -6 -3 -30 -8 -10 -14 -23 -15 -29
0 -5 5 -3 10 5 6 9 10 10 10 3 0 -6 -5 -15 -10 -18 -6 -4 -8 -12 -4 -18 3 -7
-2 -3 -11 8 -12 14 -16 16 -15 5 1 -8 2 -24 1 -35 -1 -17 -3 -18 -11 -5 -5 8
-10 10 -10 5 0 -6 5 -16 11 -22 8 -8 7 -13 -2 -18 -8 -5 -10 -4 -5 3 4 7 2 10
-7 6 -15 -5 -16 -31 -2 -53 6 -11 4 -13 -8 -8 -9 3 -16 3 -16 -1 3 -21 -3 -24
-16 -6 -13 16 -13 13 1 -15 13 -28 14 -33 1 -28 -17 6 -19 -33 -2 -46 6 -5 0
-7 -13 -4 -17 4 -21 2 -14 -6 18 -24 22 -46 6 -40 -7 3 -14 10 -14 16 0 6 -3
7 -6 4 -4 -4 -1 -13 5 -21 9 -11 9 -16 0 -22 -8 -5 -10 -3 -4 7 7 12 6 12 -6
0 -11 -11 -11 -14 -1 -18 10 -4 8 -9 -5 -19 -14 -11 -14 -13 -2 -9 9 4 16 0
16 -9 0 -8 -7 -12 -16 -9 -11 3 -10 0 3 -11 11 -9 14 -16 7 -16 -7 0 -10 -4
-6 -9 3 -5 0 -13 -6 -17 -7 -4 -9 -3 -5 4 7 12 -20 10 -31 -3 -4 -4 -3 -5 4
-1 8 4 11 -1 10 -14 -1 -11 -4 -20 -7 -20 -3 0 -6 -23 -8 -51 -2 -39 0 -49 10
-43 11 6 11 5 0 -8 -14 -18 -17 -334 -2 -340 4 -2 17 -23 28 -46 18 -38 19
-43 5 -37 -15 5 -14 3 1 -14 10 -11 16 -27 13 -35 -4 -9 -1 -18 5 -22 6 -4 8
-3 4 4 -3 6 -1 14 6 18 7 4 10 3 5 -1 -4 -5 0 -19 8 -32 9 -13 12 -23 9 -23
-4 0 1 -10 12 -22 13 -16 14 -19 2 -10 -12 10 -18 10 -24 1 -4 -8 -3 -9 4 -5
7 4 12 1 12 -8 0 -9 7 -13 19 -11 13 2 18 -1 15 -9 -3 -8 1 -20 9 -27 14 -15
17 -21 17 -40 0 -8 4 -9 13 0 18 14 30 2 16 -16 -9 -10 -7 -13 9 -13 11 0 23
-7 26 -16 6 -15 4 -15 -11 -3 -11 9 -14 10 -9 1 9 -15 66 -46 66 -35 0 9 25
-15 26 -25 0 -4 4 -15 9 -25 7 -17 8 -17 22 0 14 17 14 16 10 -5 -5 -19 -3
-21 9 -11 10 8 14 8 14 0 0 -6 5 -11 11 -11 5 0 8 4 4 9 -3 5 -1 13 5 16 6 4
10 3 9 -2 -4 -22 2 -32 16 -27 11 5 13 2 9 -10 -5 -14 59 -16 691 -16 548 0
701 2 713 12 10 9 13 9 9 1 -6 -10 11 -11 33 -3 3 1 9 2 13 1 5 -1 6 3 2 9 -5
8 -11 7 -21 -1 -9 -7 -14 -8 -14 -1 0 6 10 14 23 18 12 3 35 16 51 27 16 12
26 15 21 8 -5 -9 -3 -12 6 -9 8 3 13 10 12 16 -2 6 4 9 12 6 9 -4 21 -1 29 5
7 6 17 7 21 3 5 -4 5 -1 1 6 -6 10 -11 10 -21 2 -10 -8 -15 -8 -21 1 -4 7 -3
9 3 6 11 -7 37 16 28 25 -3 2 2 5 10 5 8 0 12 -5 9 -11 -3 -6 1 -3 9 6 8 10
17 15 20 11 4 -3 7 -1 7 6 0 7 4 9 10 6 6 -4 7 1 3 11 -4 11 -8 13 -11 6 -2
-7 -8 -12 -14 -12 -6 0 -3 9 6 19 10 11 24 17 32 14 10 -4 12 0 8 11 -4 9 -3
16 2 15 5 -1 17 1 27 6 16 7 16 8 1 19 -14 11 -14 13 2 27 9 7 19 13 21 12 1
-2 3 0 4 5 0 4 7 11 15 15 10 6 11 13 4 26 -7 14 -5 22 7 32 9 8 14 9 10 3 -3
-6 0 -11 8 -11 11 0 12 5 3 20 -7 13 -7 17 0 13 6 -3 13 -2 17 4 3 5 1 10 -6
10 -7 0 -2 9 11 20 13 11 19 20 14 20 -6 0 -15 -5 -22 -12 -9 -9 -9 -4 0 20 7
19 18 30 25 28 7 -3 15 0 19 6 4 6 3 8 -3 5 -6 -4 -13 0 -16 8 -4 9 -1 12 8 9
12 -5 14 33 14 255 0 145 -5 263 -10 266 -5 4 -6 -2 -2 -12 6 -15 5 -16 -9 -3
-15 14 -14 16 4 26 17 9 18 12 3 24 -13 11 -15 10 -10 -2 3 -8 0 -15 -8 -15
-13 0 -15 45 -3 66 4 6 1 9 -7 5 -8 -3 -14 2 -14 11 0 10 6 14 15 10 12 -4 13
-3 2 10 -7 8 -17 12 -24 8 -6 -4 -5 0 2 9 11 14 10 18 -6 27 -11 6 -21 9 -23
8 -3 -1 -1 2 3 7 4 5 -3 17 -15 28 l-22 19 24 -11 c23 -12 23 -12 8 11 -12 16
-13 26 -6 35 8 10 6 12 -11 9 -16 -3 -20 0 -16 10 3 8 1 15 -4 15 -6 0 -10 -5
-10 -12 0 -17 -10 -3 -15 21 -2 12 0 19 6 16 5 -4 6 -11 3 -17 -4 -7 -2 -8 4
-4 15 9 3 36 -17 37 -14 0 -15 1 0 11 14 10 12 14 -13 39 -16 15 -30 37 -31
48 -1 12 -5 21 -10 21 -4 0 -5 5 -1 12 5 8 2 9 -11 4 -15 -5 -16 -4 -5 9 11
13 11 16 0 13 -7 -2 -15 3 -18 11 -3 8 0 11 7 7 7 -5 9 -1 5 8 -3 9 -10 13
-15 10 -5 -3 -9 1 -9 9 0 8 -6 17 -14 20 -10 4 -13 15 -10 32 3 20 1 25 -8 19
-10 -6 -9 -3 1 9 9 11 10 17 2 17 -6 0 -11 5 -11 11 0 5 6 7 13 3 9 -6 9 -4
-1 8 -10 13 -10 17 0 20 10 4 10 8 1 20 -10 11 -10 17 0 28 9 10 9 11 0 6 -7
-4 -13 -3 -13 3 0 5 6 12 13 14 10 4 10 6 0 6 -7 1 -13 11 -13 24 0 17 2 19
10 7 7 -12 9 -10 7 7 0 12 -5 19 -9 17 -13 -8 -9 11 4 24 10 10 10 15 -2 22
-13 8 -13 10 -1 10 11 0 9 4 -5 15 -13 10 -14 13 -3 10 10 -4 16 0 16 10 0 8
-5 15 -10 15 -5 0 -1 8 10 18 10 9 14 14 9 10 -14 -11 -28 -10 -22 1 4 5 3 11
-1 14 -5 2 -2 2 5 1 6 -2 12 1 12 6 0 6 -4 10 -10 10 -5 0 -10 5 -10 11 0 5 4
8 8 5 4 -2 8 9 7 25 0 16 -3 29 -6 29 -3 0 -5 10 -5 23 1 12 -7 33 -18 47
l-21 25 21 -17 c20 -17 20 -17 18 14 -1 17 -6 33 -11 37 -4 3 -9 12 -11 20 -3
12 -1 12 14 0 13 -10 16 -10 10 -1 -4 7 -2 20 6 29 9 12 9 15 1 9 -9 -5 -13
-1 -13 11 0 11 6 25 13 32 10 11 10 13 0 7 -17 -9 -17 6 0 23 9 11 9 12 0 7
-9 -5 -11 -2 -7 8 3 9 10 13 15 10 5 -3 6 2 3 10 -3 9 -9 14 -13 11 -4 -2 -8
3 -8 11 0 8 5 13 11 11 6 -3 11 6 11 18 0 17 -3 21 -12 13 -9 -7 -11 -4 -10
11 0 11 5 17 9 15 4 -3 8 2 8 11 0 10 -5 13 -12 9 -8 -5 -9 -2 -5 9 3 10 2 17
-3 17 -6 0 -10 5 -10 11 0 5 4 7 10 4 6 -4 7 1 3 11 -4 11 -8 13 -11 6 -2 -7
-8 -12 -13 -12 -6 0 -7 5 -4 10 6 9 -8 15 -29 11 -5 -1 -4 4 2 12 10 12 8 14
-11 12 -20 -2 -24 1 -21 22 2 24 2 24 -19 6 -11 -10 -17 -12 -12 -4 6 11 4 13
-8 8 -9 -3 -19 -2 -22 3 -9 15 -27 12 -20 -2 4 -7 0 -5 -8 5 -15 18 -62 33
-52 16 4 -5 10 -7 15 -4 4 3 11 -2 14 -10 5 -13 2 -13 -22 -2 -30 15 -75 12
-51 -4 9 -5 10 -9 2 -9 -6 0 -19 7 -27 16 -9 8 -16 11 -16 5 0 -6 -9 -11 -20
-11 -11 0 -18 6 -16 13 1 6 1 9 -1 5 -3 -5 -9 -8 -14 -8 -6 0 -8 4 -5 9 3 5
-1 12 -10 15 -8 3 -13 2 -10 -2 3 -4 -6 -8 -18 -8 -17 0 -22 5 -19 17 3 9 0
20 -6 24 -7 3 -10 1 -9 -6 3 -15 -18 -18 -49 -8 -14 5 -24 4 -27 -4 -3 -7 -3
-1 1 13 5 23 5 24 -12 10 -17 -13 -18 -13 -13 1 8 21 -32 21 -48 0 -9 -11 -12
-12 -19 -1 -5 9 -4 11 3 6 7 -4 12 -2 12 4 0 8 -72 11 -251 9 -138 -1 -245 -6
-237 -10z m73 -11 c3 -3 -8 -5 -25 -5 -16 0 -30 4 -30 8 0 8 47 5 55 -3z m45
2 c0 -5 -2 -10 -4 -10 -3 0 -8 5 -11 10 -3 6 -1 10 4 10 6 0 11 -4 11 -10z
m-240 -25 c0 -2 -10 -10 -22 -16 -21 -11 -22 -11 -9 4 13 16 31 23 31 12z
m-312 -30 c-3 -3 -9 2 -12 12 -6 14 -5 15 5 6 7 -7 10 -15 7 -18z m-78 -25 c0
-5 -5 -10 -11 -10 -5 0 -7 5 -4 10 3 6 8 10 11 10 2 0 4 -4 4 -10z m1585 -340
c3 -5 1 -10 -4 -10 -6 0 -11 5 -11 10 0 6 2 10 4 10 3 0 8 -4 11 -10z m0 -70
c3 -6 -1 -7 -9 -4 -18 7 -21 14 -7 14 6 0 13 -4 16 -10z m139 -799 c-3 -3 -10
2 -15 12 -6 9 -15 14 -21 11 -7 -5 -8 -2 -4 5 6 9 13 8 27 -5 11 -9 17 -20 13
-23z m53 -104 c0 -8 -6 -14 -14 -14 -9 0 -10 4 -2 14 6 7 12 13 14 13 1 0 2
-6 2 -13z m53 -101 c0 -2 -7 -6 -15 -10 -8 -3 -15 -1 -15 4 0 6 7 10 15 10 8
0 15 -2 15 -4z m38 -210 c-1 -14 -5 -23 -9 -20 -7 4 0 44 7 44 2 0 3 -11 2
-24z m-2193 -6 c3 -6 -1 -7 -9 -4 -18 7 -21 14 -7 14 6 0 13 -4 16 -10z m-10
-31 c-4 -5 -12 -9 -18 -8 -9 0 -8 2 1 6 6 2 9 10 6 15 -4 7 -2 8 5 4 6 -4 9
-12 6 -17z m285 -859 c0 -5 -2 -10 -4 -10 -3 0 -8 5 -11 10 -3 6 -1 10 4 10 6
0 11 -4 11 -10z"/>
<path d="M830 2621 c0 -6 4 -13 10 -16 6 -3 7 1 4 9 -7 18 -14 21 -14 7z"/>
<path d="M496 2264 c-5 -14 -4 -15 9 -4 17 14 19 20 6 20 -5 0 -12 -7 -15 -16z"/>
<path d="M2200 1590 c20 -13 33 -13 25 0 -3 6 -14 10 -23 10 -15 0 -15 -2 -2
-10z"/>
<path d="M214 483 c2 -9 8 -18 15 -19 6 -1 7 0 1 3 -5 2 -8 9 -5 13 3 5 1 11
-4 14 -5 4 -8 -2 -7 -11z"/>
<path d="M275 330 c-3 -5 -1 -10 4 -10 6 0 11 5 11 10 0 6 -2 10 -4 10 -3 0
-8 -4 -11 -10z"/>
<path d="M466 88 c3 -4 9 -8 15 -8 5 0 9 4 9 8 0 5 -7 9 -15 9 -8 0 -12 -4 -9
-9z"/>
<path d="M2114 45 c-10 -8 -14 -15 -7 -15 6 0 15 5 18 10 4 6 11 7 17 4 7 -4
8 -2 4 4 -9 15 -8 15 -32 -3z"/>
</g>
</svg>
